PathFileType	4	(X/Y/Z)	C:\Users\WrightLab\Desktop\Jo\P4V128.trc
DataRate	CameraRate	NumFrames	NumMarkers	Units	OrigDataRate	OrigDataStartFrame	OrigNumFrames
100.00	100.00	       11	19	mm	100.00	428	       489
Frame#	Time	Headset_Front			Headset_Back			Headset_Left			Headset_Right			Left_Shoulder			Right_Shoulder			Sternum			C7			Left Elbow			Right Elbow			Left Wrist			Right Wrist			Left ASIS			Right ASIS			S2			Left Knee			Right Knee			Left Ankle			Right Ankle			
		X1	Y1	Z1	X2	Y2	Z2	X3	Y3	Z3	X4	Y4	Z4	X5	Y5	Z5	X6	Y6	Z6	X7	Y7	Z7	X8	Y8	Z8	X9	Y9	Z9	X10	Y10	Z10	X11	Y11	Z11	X12	Y12	Z12	X13	Y13	Z13	X14	Y14	Z14	X15	Y15	Z15	X16	Y16	Z16	X17	Y17	Z17	X18	Y18	Z18	X19	Y19	Z19	

428	4.270	-202.30994	1788.68384	2231.48633	-144.17972	1771.58118	2367.57959							48.13242	1577.32800	2274.04590	28.49552	1763.36670	2248.09814	-131.82698	1528.39978	2303.68115				133.06252	1224.83081	2377.72949	-219.62430	1582.85291	2125.79248	-33.07979	1033.10303	2554.93555	-369.19138	1233.66516	2132.63330	-410.86765	1005.13074	2332.88477	-303.76910	1088.07129	2240.01563	-7.36006	1085.99951	2391.64063	8.67380	597.76013	2348.29346	-279.44516	598.19067	2217.21582	27.01250	106.19054	2224.06738	-163.82983	103.58664	2166.97485	
429	4.280	-205.04887	1789.15625	2231.51953	-146.48878	1772.02502	2367.60986							45.72610	1577.29321	2275.06445	26.61647	1762.71130	2246.61816	-134.00046	1527.41589	2304.51489				132.91789	1224.84583	2377.40991	-221.65259	1581.81311	2125.64746	-28.23083	1023.48309	2550.04199	-370.05304	1232.87683	2131.87720	-412.50476	1005.27374	2333.69434	-305.94864	1087.30566	2239.61768	-9.52228	1086.27454	2393.10229	6.43012	597.40558	2346.91577	-279.74063	597.95856	2217.38281	27.02105	106.20319	2224.06909	-163.82640	103.49802	2166.97339	
430	4.290	-207.14218	1788.76379	2232.13428	-148.78149	1772.40027	2367.56982							43.70705	1577.63501	2276.07642	24.39387	1763.28125	2247.77612	-135.89407	1527.33240	2305.16943				132.44742	1224.92737	2377.47485	-223.30139	1581.44910	2127.08350	-22.07800	1013.59357	2543.74170	-371.22229	1231.85437	2131.58154	-413.94247	1004.36774	2334.46094	-306.13470	1087.57434	2240.37231	-10.93057	1085.89709	2393.41016	5.87815	597.38391	2347.10449	-279.99652	597.84924	2217.54883	27.02695	106.12973	2224.02417	-163.80919	103.40788	2166.95337	
431	4.300	-208.91551	1788.59167	2231.31323	-150.47113	1772.65173	2367.03247							41.83566	1577.70166	2277.27441	22.33939	1763.16650	2248.33252	-138.01537	1527.26257	2305.56543				131.67657	1224.95923	2377.00928	-224.94376	1581.24109	2127.48608	-15.60719	1004.08972	2537.49829	-372.47556	1230.89551	2132.12939	-415.15283	1003.78918	2334.56030	-307.32248	1087.38318	2241.07227	-12.58628	1085.72693	2394.17505	5.33862	597.19568	2347.55762	-280.17157	597.76276	2217.61865	26.98894	106.15477	2224.06201	-163.84625	103.39501	2167.00391	
432	4.310	-211.32712	1788.93701	2231.72241	-152.88719	1773.27539	2367.16504							39.84096	1577.93298	2278.80029	20.28832	1762.81885	2247.46558	-140.30315	1527.63757	2306.85938				132.02213	1226.20630	2378.03418	-226.82498	1580.78442	2127.24927	-8.73416	994.40845	2530.54785	-373.35916	1230.00415	2132.42773	-416.80106	1003.42279	2334.72217	-308.56445	1087.24268	2241.05811	-14.69510	1085.90662	2395.56226	4.55455	597.61621	2347.80981	-280.57999	597.75836	2215.77393	27.02956	106.17031	2224.04517	-163.80763	103.37704	2166.95215	
433	4.320	-212.46240	1788.79944	2230.62744	-155.33707	1774.15369	2368.16577							37.41187	1577.99463	2280.19849	18.42650	1762.90613	2248.36792	-142.30110	1526.73779	2307.39478				130.55988	1225.05249	2376.32935	-228.38158	1580.07068	2127.63989	-1.64031	985.33197	2524.03345	-373.87436	1229.37476	2132.53271	-418.12845	1002.55670	2334.07227	-310.01331	1087.29272	2240.99048	-15.72156	1085.11475	2395.50537	4.41870	597.64056	2347.81323	-280.86813	597.60956	2215.85083	27.04778	106.17269	2224.03516	-163.76483	103.34776	2166.89526	
434	4.330	-214.93175	1788.66736	2231.17017	-157.66315	1774.37878	2368.20923							35.23396	1578.12256	2281.35620	16.26674	1762.79956	2249.53198	-144.24072	1526.58740	2307.90698				129.21548	1224.93665	2375.09131	-229.90549	1580.23108	2128.99878	6.53436	976.41058	2516.45654	-374.33090	1229.05115	2132.64893	-419.42557	1001.86401	2333.89941	-311.19507	1087.04602	2241.34668	-17.62412	1085.29114	2396.36987	3.28486	597.61432	2348.69775	-281.31448	597.98090	2215.28003	27.02357	106.06335	2223.98877	-163.87885	103.20073	2167.05518	
435	4.340	-216.80066	1788.85657	2231.42700	-159.25963	1774.68079	2367.50684							33.56251	1578.28113	2282.50586	14.44062	1762.46936	2248.73804	-146.81030	1526.56091	2308.60669				128.43018	1225.48438	2374.85352	-231.52898	1579.99353	2129.48779	14.41556	968.92773	2509.44800	-374.66547	1228.84131	2132.20801	-420.72946	1000.73895	2333.38208	-312.14890	1086.85706	2241.28589	-18.64794	1084.99194	2396.26855	2.64935	597.43201	2349.27173	-281.87955	597.77826	2215.58984	27.04067	106.13553	2224.01880	-163.80710	103.24287	2166.95630	
436	4.350	-218.43712	1788.59460	2230.97632	-161.19693	1775.03809	2368.02612							31.27580	1578.93176	2284.29663	-21.02134	1720.29126	2123.25610	-148.52933	1526.24292	2308.56787				128.15440	1225.72107	2374.72290	-232.76979	1579.26575	2128.45410	23.11274	960.92926	2501.43359	-375.03683	1228.86755	2131.65332	-421.97992	999.90436	2332.53271	-312.38007	1087.54626	2237.10742	-20.78517	1085.39587	2397.47583	2.46387	597.29730	2349.41406	-282.17181	597.59875	2215.68848	26.98999	106.15750	2224.06274	-163.82082	103.25055	2166.97461	
437	4.360	-220.71092	1789.01331	2231.48169	-163.93394	1775.61621	2368.55054							28.99022	1578.85815	2286.15649	-23.76488	1719.91199	2123.17798	-150.72655	1525.74341	2309.53784				128.29590	1226.54321	2376.55078	-235.13629	1579.42322	2130.15405	31.66903	954.42407	2493.85083	-376.03983	1228.62585	2131.44141	-422.87027	998.97656	2331.19678	-314.83383	1086.43811	2241.83154	-22.08481	1085.23022	2397.80005	2.00424	597.17651	2349.72168	-282.80801	597.19879	2215.03784	26.99874	106.17850	2224.06909	-163.84358	103.21184	2167.00684	
438	4.370	-222.48857	1788.61304	2232.31812	-166.05440	1776.32410	2369.29102							26.87135	1579.06421	2287.31055	-25.52455	1720.40125	2125.19116	-153.02031	1525.89160	2310.26489				128.26509	1226.92932	2375.57153	-235.88887	1579.46277	2130.64429	40.37323	948.68829	2486.21777	-376.86523	1228.38159	2130.99512	-423.88745	998.01129	2329.77490	-316.06839	1085.96387	2241.52124	-23.72777	1085.22742	2398.31860	-0.60835	596.17084	2347.49170	-283.83820	597.52374	2214.19995	27.02947	106.14978	2224.03369	-163.80269	103.12090	2166.95459	
